<?xml version="1.0" encoding="UTF-8"?>
<svg id="_레이어_2" data-name="레이어 2" xmlns="http://www.w3.org/2000/svg" xmlns:xlink="http://www.w3.org/1999/xlink" viewBox="0 0 235.34 77.21">
  <defs>
    <style>
      .cls-1 {
        fill: #1b6989;
      }

      .cls-2 {
        fill: url(#_무제_그라디언트_75);
        opacity: .98;
      }

      .cls-3 {
        font-family: Jua-Regular, Jua;
        font-size: 14px;
      }

      .cls-4 {
        fill: #fff;
      }

      .cls-5 {
        fill: #f5a200;
      }

      .cls-5, .cls-6, .cls-7 {
        stroke: #d0121b;
        stroke-width: .1px;
      }

      .cls-6 {
        fill: #e8380d;
      }

      .cls-8 {
        letter-spacing: 0em;
      }

      .cls-9 {
        letter-spacing: 0em;
      }

      .cls-10, .cls-11 {
        fill: #00913a;
      }

      .cls-7 {
        fill: #f5ce00;
      }

      .cls-11 {
        font-family: GillSans-UltraBoldCondensed, 'Gill Sans Ultra Bold Condensed';
        font-size: 42.48px;
        font-weight: 700;
      }

      .cls-12 {
        fill: url(#_무제_그라디언트_89);
      }
    </style>
    <linearGradient id="_무제_그라디언트_89" data-name="무제 그라디언트 89" x1="10.71" y1="25.72" x2="102.61" y2="68.74" gradientUnits="userSpaceOnUse">
      <stop offset="0" stop-color="#008cb4"/>
      <stop offset=".77" stop-color="#002848"/>
    </linearGradient>
    <linearGradient id="_무제_그라디언트_75" data-name="무제 그라디언트 75" x1="22.71" y1="27.38" x2="88.39" y2="76.91" gradientUnits="userSpaceOnUse">
      <stop offset="0" stop-color="#008bb3"/>
      <stop offset=".46" stop-color="#002746"/>
    </linearGradient>
  </defs>
  <g id="Shield">
    <path class="cls-12" d="M63.87,17.25l-.02-.52-.12-4.55-.08-2.78h0c0-.34-.18-.65-.47-.82-.19-.11-.38-.21-.58-.3h0c-.27.05-.54.1-.83.14h0c-.67.1-1.39.17-2.14.22-.35.02-.71.03-1.07.04-.28,0-.57.01-.87,0-3.03-.02-6.52-.46-10.21-1.45-3.96-1.06-7.59-2.58-10.51-4.38-.27-.16-.53-.33-.79-.51-.32-.21-.63-.43-.93-.65-.33-.24-.65-.49-.96-.74-.1-.08-.2-.16-.29-.24,0,0,0,0,0,0-.18-.15-.35-.3-.52-.46-.11-.1-.24-.17-.39-.19-.26-.04-.53-.06-.81-.06-.3,0-.6.03-.88.08-.14.02-.27.09-.37.19-.18.17-.37.33-.57.49-.37.31-.77.62-1.19.93-.26.19-.54.38-.82.57-.27.18-.55.36-.83.54-2.8,1.73-6.41,3.33-10.58,4.44-3.16.85-6.17,1.3-8.88,1.42-.22.01-.43.02-.64.02-.9.02-1.76.01-2.58-.03-.02,0-.05,0-.07,0l-2.17-.31-.38-.05-.53.12c-.25.17-.48.37-.7.58-.14.13-.21.32-.21.51v.37s-.07,2.34-.07,2.34l-.09,3.24h0s-.02.66-.02.66l-.69,25.77v.05c0,9.84,5.52,19.05,15.95,26.65,7.71,5.61,15.31,8.35,15.63,8.46l.42.15c.16.06.34.06.51,0l.42-.15c.31-.11,31.58-11.54,31.58-35.51l-.65-24.25ZM32.24,72.97c-4.37-1.74-28.21-12.09-28.23-31.04l.64-23.9v-.4s.14-4.94.14-4.94c.57.03,1.16.05,1.76.05,1.01,0,2.06-.04,3.13-.14.13,0,.27-.02.4-.03,2.53-.24,5.21-.72,7.99-1.46,3.5-.94,6.67-2.17,9.4-3.59.12-.06.24-.12.36-.19,1.66-.89,3.15-1.85,4.44-2.85,1.32,1.02,2.81,1.97,4.45,2.85.12.06.24.13.36.19,2.79,1.46,5.98,2.69,9.36,3.59,3.08.82,6.05,1.33,8.82,1.53.13,0,.26.02.4.02.79.05,1.56.08,2.31.08.6,0,1.2-.02,1.77-.05l.14,5.31v.41s.63,23.12.63,23.12c-.02,19.03-23.93,29.68-28.26,31.45Z"/>
    <path class="cls-2" d="M54.45,16.33c-3.01,0-6.4-.46-9.95-1.41-4.78-1.28-9.1-3.3-12.22-5.72-.11.09-.23.18-.35.26,0,0,0,0,0,0-.04.03-.08.06-.11.08-.09.07-.18.13-.27.2-.1.07-.21.15-.32.22-.09.07-.19.13-.29.2-.11.07-.22.15-.33.22-.1.06-.2.13-.3.19-.11.07-.23.14-.34.21-.1.06-.21.13-.31.19-.12.07-.24.14-.36.21-.11.06-.21.12-.32.18-.12.07-.25.14-.37.2-.11.06-.22.12-.33.18-.13.07-.25.13-.38.2-.11.06-.23.12-.34.17-.13.07-.26.13-.4.19-.12.06-.23.11-.35.17-.14.06-.28.13-.41.19-.12.05-.24.11-.36.16-.14.06-.28.12-.43.18-.12.05-.24.1-.37.15-.15.06-.3.12-.45.18-.12.05-.25.1-.37.15-.15.06-.31.12-.46.17-.12.05-.25.09-.37.14-.16.06-.32.11-.48.17-.12.04-.25.09-.37.13-.17.06-.35.11-.52.17-.12.04-.24.08-.36.11-.2.06-.4.12-.6.18-.1.03-.2.06-.29.09-.3.09-.61.17-.91.26-3.55.95-6.93,1.41-9.94,1.41-.35,0-.7,0-1.05-.02-.04,0-.09,0-.13,0,0,0,0,0-.01,0-.11,0-.22,0-.33-.01l-.68,25.23c.02,15.9,19.53,24.81,24.04,26.66.21.09.45.09.66,0,4.48-1.88,24.04-11.02,24.05-27l-.66-24.89c-.5.03-1,.04-1.52.04Z"/>
  </g>
  <g id="check">
    <path class="cls-10" d="M21.7,31.24c2.91,4.01,5.41,8.2,7.83,12.49.05.1-.03-.09-.08-.15-.06-.09-.13-.16-.15-.19-.33-.28-.2-.14-.04-.15.17.03.42.04.64.03.2,0,.49-.08.33-.05l-.96.66c4.61-5.68,9.54-11.09,14.98-16,1.81-1.65,3.69-3.24,5.7-4.71l.75.66c-4.98,8.73-11.47,16.42-18.36,23.69-1.55.53-2.64.51-4.08.2-.59-.13-1.8-.56-2.45-1.5-.22-.31-.24-.4-.35-.66-1.91-4.47-3.7-8.98-5.1-13.66,0,0,1.35-.66,1.35-.66h0Z"/>
    <path class="cls-4" d="M22.05,31.04c2.82,3.57,5.3,7.33,7.74,11.13.03.04.07.12.08.13-.07-.17-.25-.28-.39-.28-.09,0-.21.03-.29.09-.01,0-.05.05,0-.02l.23-.25c6.3-6.8,12.89-13.31,20.41-18.78,0,0,.57.56.57.56-5.35,7.76-11.78,14.59-18.51,21.13-1.47,1.57-4.3,1.2-5.22-.8-.11-.19-.36-.73-.47-.93-1.88-3.72-3.69-7.47-5.21-11.38,0,0,1.04-.6,1.04-.6h0Z"/>
  </g>
  <g id="LifeInfo">
    <text class="cls-11" transform="translate(74.81 41.55)"><tspan x="0" y="0">Li</tspan><tspan class="cls-8" x="32.25" y="0">f</tspan><tspan class="cls-9" x="48.54" y="0">eIn</tspan><tspan class="cls-8" x="105.77" y="0">f</tspan><tspan x="122.05" y="0">o</tspan></text>
  </g>
  <g id="_레이어_7" data-name="레이어 7">
    <g>
      <polygon class="cls-5" points="208.6 26.06 211.6 21.72 209.37 26.51 208.6 26.06"/>
      <polygon class="cls-5" points="206.15 26.86 201.36 24.63 205.7 27.63 206.15 26.86"/>
      <polygon class="cls-5" points="209.54 29.8 214.32 32.03 209.98 29.03 209.54 29.8"/>
      <polygon class="cls-5" points="206.29 29.94 204.06 34.72 207.07 30.38 206.29 29.94"/>
      <g>
        <polygon class="cls-5" points="206.75 26.22 205.71 21.05 207.61 25.97 206.75 26.22"/>
        <polygon class="cls-5" points="205.62 28.54 200.69 30.44 205.87 29.4 205.62 28.54"/>
        <polygon class="cls-5" points="210.1 28.14 215.02 26.24 209.85 27.28 210.1 28.14"/>
        <polygon class="cls-5" points="207.94 30.57 209.84 35.5 208.8 30.32 207.94 30.57"/>
      </g>
      <g>
        <polygon class="cls-7" points="210.12 27.99 213.83 29.29 209.9 29.26 210.12 27.99"/>
        <polygon class="cls-7" points="208.2 30.63 206.9 34.34 206.93 30.41 208.2 30.63"/>
        <polygon class="cls-7" points="205.68 27.52 201.77 27.88 205.58 28.81 205.68 27.52"/>
        <polygon class="cls-7" points="208.73 26.19 208.37 22.28 207.44 26.1 208.73 26.19"/>
      </g>
      <g>
        <polygon class="cls-7" points="209.67 29.7 211.26 33.29 208.59 30.41 209.67 29.7"/>
        <polygon class="cls-7" points="206.42 30.11 202.84 31.7 205.71 29.03 206.42 30.11"/>
        <polygon class="cls-7" points="206.97 26.14 204.03 23.54 205.97 26.95 206.97 26.14"/>
        <polygon class="cls-7" points="210.03 27.45 212.63 24.52 209.22 26.45 210.03 27.45"/>
      </g>
      <path class="cls-6" d="M206.74,30.21c1.08.62,2.45.24,3.06-.83s.24-2.45-.83-3.06-2.45-.24-3.06.83-.24,2.45.83,3.06Z"/>
    </g>
  </g>
  <g id="line">
    <g>
      <path class="cls-1" d="M235.15,47.57c.24.04.16-.38.19-.46-.41.09-.18.57-.19.46Z"/>
      <polygon class="cls-1" points="231.15 48.52 231.22 48.35 230.63 48.77 231.15 48.52"/>
      <path class="cls-1" d="M227.41,48.52c.35.71,1.35-.12,2.02.14l.11.16.3-.57c-.81.09-1.86.47-2.43.27Z"/>
      <path class="cls-1" d="M225.42,46.97c.12.28-.43.24.46.09-.04-.03-.06-.05-.08-.07-.08,0-.19,0-.38-.02Z"/>
      <path class="cls-1" d="M225.8,46.99c.39-.02-.26-.23,0,0h0Z"/>
      <path class="cls-1" d="M223.98,47.15l.52-.25c-.11-.16-.57-.2-.4-.32-.53.14-.42.3-.12.57Z"/>
      <path class="cls-1" d="M223.49,47.67l.27-.1c-.05-.07-.12-.09-.27.1Z"/>
      <path class="cls-1" d="M224.33,47.34l-.57.22c.08.12.08.35.26-.08-.05.21.07,0,.31-.14Z"/>
      <path class="cls-1" d="M224.65,47.45c.29.16.67.25.15.5.99-.1.85-.6-.15-.5Z"/>
      <path class="cls-1" d="M227.22,49.25l.39.21.34-.24c-.17.12-.75-.19-.73.03Z"/>
      <path class="cls-1" d="M220.75,46.78c-.03.15.17.4.21.6l.38-.17c-.2-.1-.57-.2-.6-.42Z"/>
      <path class="cls-1" d="M220.96,47.38l-.57.26c.51.03.61-.09.57-.26Z"/>
      <polygon class="cls-1" points="223.4 48.46 224.34 47.91 223.21 48.47 223.4 48.46"/>
      <polygon class="cls-1" points="218.56 46.76 218.89 46.41 218.31 46.94 218.56 46.76"/>
      <path class="cls-1" d="M217.11,46.82c.24-.29-.33-.49-.08-.67-.39.05-.73.3-1.03.53.32-.13.67-.09,1.11.14Z"/>
      <path class="cls-1" d="M215.49,47c.16-.07.33-.19.51-.33-.17.07-.34.16-.51.33Z"/>
      <path class="cls-1" d="M219.41,47.56c-.04-.09-.13-.33-.45-.43l.23.43c.07,0,.15,0,.23,0Z"/>
      <path class="cls-1" d="M219.2,47.57h0c-.24-.02-.41-.03-.49-.04.06,0,.21.01.49.04Z"/>
      <path class="cls-1" d="M219.47,47.56s-.04,0-.06,0c.02.04.03.06.06,0Z"/>
      <path class="cls-1" d="M221.89,48.07c-.34.24-1.04.5-.36.86.24-.29-.15-.5.36-.86Z"/>
      <path class="cls-1" d="M219.75,48.1l.61.1c-.01-.11-.12-.28.05-.4l-.65.3Z"/>
      <polygon class="cls-1" points="219.45 48.23 219.75 48.1 219.53 48.06 219.45 48.23"/>
      <path class="cls-1" d="M216.53,47.4c-.26.19-.55.2-.88.23.35.08.71.13,1.05.13.05-.13.2-.38-.17-.36Z"/>
      <path class="cls-1" d="M217.83,47.52s-.04.01-.06.02c.04.04.06.05.06-.02Z"/>
      <path class="cls-1" d="M212.46,47.63s.03.05.05.08c0-.02,0-.05.01-.07h-.06Z"/>
      <path class="cls-1" d="M216.77,47.84c.26.08.42-.02.57-.15-.2.04-.4.07-.63.07-.02.06-.03.1.06.08Z"/>
      <path class="cls-1" d="M214.6,47.2c.14.09.29.16.45.23-.13-.14-.4-.35-.45-.23Z"/>
      <path class="cls-1" d="M217.68,47.43s.02-.01.04-.02c-.09-.09-.08-.05-.04.02Z"/>
      <path class="cls-1" d="M217.68,47.43c-.13.06-.24.17-.35.26.16-.03.31-.08.44-.14-.03-.03-.06-.08-.09-.12Z"/>
      <path class="cls-1" d="M211.49,50.37c.05-.4.73-.76,1.33-.34.58-.3.2-1.6-.31-2.33-.02.17-.02.33-.62.57.21.22,1.33.51.83.86-.8.2-.65-.14-1.04-.35.33.49-1.01.72-.84,1.44l.7-.26c.01.11-.24.29-.05.4Z"/>
      <path class="cls-1" d="M213.66,47.75l.25-.05c-.28-.07-.48-.23-.86-.54-.41.19-.5.34-.53.47l1.22.06-.08.06Z"/>
      <path class="cls-1" d="M215.02,47.7c-.19.43-.79.61-.42,1.08.73-.03.51-.36.94-.55-1.17.11.34-.24-.51-.48.23-.07.44-.1.63-.11-.21-.05-.41-.12-.61-.2.01,0,.02.02.03.03h0s0,0,0,0c.05.05.07.09.01.06,0,0-.02,0-.02,0,0,.06-.03.11-.05.16-.34-.09-.05-.11.05-.16,0-.02.01-.04.01-.06,0,0,0,0,0,0l-1.17.24c.25.06.56.05,1.11,0Z"/>
      <path class="cls-1" d="M220.91,49.86s-.03-.07-.04-.1c-.08.05-.1.09.04.1Z"/>
      <path class="cls-1" d="M220.43,49.6c.09-.06.16-.23.43-.19.24.13,0,.21.01.35.17-.11.59-.31.06-.52l-.08.06c-.47-.15-1.08-.69-1-.74.14.39.26.66.57,1.04Z"/>
      <path class="cls-1" d="M217.69,48.76l-.98.21.5.37-.03-.22c.56.09.44-.19.51-.36Z"/>
      <polygon class="cls-1" points="212.35 47.42 212.48 46.96 211.91 47.6 212.35 47.42"/>
      <polygon class="cls-1" points="211.08 47.47 211.13 47.08 210.79 47.31 211.08 47.47"/>
      <path class="cls-1" d="M139.38,52.38l-.29.11c.14-.03.22-.07.29-.11Z"/>
      <path class="cls-1" d="M141.46,52.41l.05-.19c-.1.11-.14.19-.05.19Z"/>
      <path class="cls-1" d="M179.87,47.52c-.42-.37-.89-.94-.84-.5l.13.43c.29-.08.52-.03.71.06Z"/>
      <path class="cls-1" d="M158.5,50.11s.08.09.12.13c.1-.15.2-.29.28-.42-.12.09-.26.18-.4.28Z"/>
      <path class="cls-1" d="M158.21,51.9l-.55-.28c.12.1.3.19.55.28Z"/>
      <path class="cls-1" d="M128.02,52.84l-.34.44c.52,0,.29-.23.34-.44Z"/>
      <path class="cls-1" d="M198.07,47.63c-.36-.17-.65-.24-.9-.26.44.25.79.62.9.26Z"/>
      <path class="cls-1" d="M140.2,47.78c-.18.08-.25.17-.25.26.18-.07.28-.16.25-.26Z"/>
      <path class="cls-1" d="M196.12,47.37c.06.04.13.07.19.1.26-.07.53-.13.85-.1-.32-.19-.69-.3-1.04,0Z"/>
      <path class="cls-1" d="M86.83,52.48s-.07-.03-.09-.05c0,.06.03.06.09.05Z"/>
      <path class="cls-1" d="M74.82,48.1c.12-.03.31-.03.49-.03-.09-.03-.24-.03-.49.03Z"/>
      <path class="cls-1" d="M205.97,47.28c.27-.03.04-.05,0,0h0Z"/>
      <path class="cls-1" d="M207.28,49c-.06.05-.1.11-.11.21.02-.1.06-.17.11-.21Z"/>
      <path class="cls-1" d="M193.44,50.07s-.01,0-.02,0c.08.08.07.07.02,0Z"/>
      <path class="cls-1" d="M206.37,47.48c-.1-.05-.22-.1-.34-.13.06.03.16.08.34.13Z"/>
      <path class="cls-1" d="M206.32,47.27c.09.02.17.03.24.04.03-.07,0-.12-.24-.04Z"/>
      <path class="cls-1" d="M205.59,47.31c.15,0,.3.01.44.04-.05-.03-.08-.05-.06-.07-.08,0-.19.02-.38.02Z"/>
      <path class="cls-1" d="M108.9,51.32s-.04-.02-.06-.04c-.27.18-.15.15.06.04Z"/>
      <path class="cls-1" d="M172.86,52.02s.02-.02.03-.02c-.01,0-.03-.01-.04-.02v.04Z"/>
      <path class="cls-1" d="M171.89,52.35c.41-.54.65-.47.96-.36l-.32-1.25-.64,1.61Z"/>
      <path class="cls-1" d="M134.4,52.51l.68.39c-.82.64-1.41.42-.78.97.1-1.36,2.64-.14,2.74-1.5l.45.29c-.13-.01-.15.07-.28.05.87.65.65-.98,1.77-.79.39.1.66.3.4.46l.87-.34c.25.03.19.26-.06.24l1.33-.11v.04c.18-.21.61-.54.82-.68.34.19-.17.14-.08.31l.74-.33c.3.35-.31.69-.82.64.69,1.36.61-.34,2.09.45l-.7.17c.45.77.99.49,1.78.97-.19-.25-1.57-1.21-.77-1.55.23.1.52.15.95-.12,0,.48.42.36.95.34l-.04.64c.57-.18.52-.51.86-.8.63.06.77.56.92.98,1.02.1-.7-.79.5-.91.85.24,1.44-.02,2.45-.4.59.22-.1.39.11.57l.52-.51c.13.01.09.17.07.25.44-.2.04-.64.73-.81.19-.7,1.43,1.03,2.29.23.21.18-.1.39-.04.64,1.18-.52,1.01-.38,1.98-1.09l.83.42c-.61-.48.17-1.05.85-1.52-.22-.23-.4-.43-.52-.53l1.08-.34c.13.1.02.32-.16.59.07-.05.14-.1.2-.15.39.24.19.61-.09.96-.13-.13-.26-.26-.39-.39-.27.39-.52.82-.46,1.19.07-.07.21-.14.35-.17-.07.11-.11.2-.08.26.04.07.15-.07.33-.24l.25.71.06-.28,1.42.45c1.01-.72,1.9-1.77,3.5-2.07-.4.52-.09.85-.11,1.47-.44-.66-1.25.28-2.08.15.44.07.34.36.23.47l1.49-.6c-.03.51.32.38.7.59-.29-1,1.11-.67,1.71-.97.04.34-.11.68-.85.6.81.75,1.05-1.18,1.85-.54-.18,0-.28-.04-.35.13.42-.3,1.45-.06,1.21.23h-.18c1.2.13,3.64.01,3.82-.84.01.11-.16,1.03-.23,1.2l2.14-2.86c-.19.73.53,2.47-.46,2.88.28.1.64.23,1.24-.03-.19-.1-.48-1.06-.22-1.12.73.81.51.43,1.4,1.13-.29-.16.03-1.3.49-1.27-.07.17.04,1.13-.13,1.25l1.15-1.12c-.29.2-.05.95.21,1.27-.12-.22.99.02,1.3-.09l-.49-.26c1.29.17,1.28-1.58,2.56-1.52-.16.23-.38,1.43.27,1.57.3-.58,1.32-2.77,2.46-3.21l.22.33.87-.38c-.54.87-2.07,2.69-2.9,3.4.48.26.13.39.86.36.26.31-.4.47-.61.49l1.69.2c-.08-.67,1.29-.67,1.23-1.23l-1.83.7c-.07-.67,1.06-1.91,2.26-1.79.3.27-.23,1.2-.2,1.42.16-.23,1.14-.44,1.25-.28l-.51.36c.67.25,1.09-.89,1.89-.25.28.04.82.87.87.47-.45-.77-.54-3.14-.24-3.72.1.05,1.45.73,1.77,1.11.45.6-.68,1.43-.3,1.95.02-.18.27-.41.37-.48.29.16-.12.57.51.49.11-.68,1.28.06.3-.58.62-.19.66.14,1.38.11-.23-.44.65-1.5,1.27-1.69-.04.17.1.4.17.5,1.26.06,1.94.37,3.12.38.11.17.68.36.44.66.17-.12.33-.35.69-.37.7.59-.81.09-.27.8.05-.4.94-.55,1.46-.79-.16-.61-1.2-.12-1.71.13,0-.84.9-1.73,2.13-2.12.98-.21.42.55.59.43,1.84.15,1.57-1.47,3.09-.86.61.54.03,1.07.16,1.46-.8.2-1.22-.34-1.76-.32l.67.25c-.25.18-.79.31-1.08.16.51.48,3.11.09,4.53.54.25-.18.69-.37.48-.58l-.45.08c-.41-.43.84-.6.28-.8.6-.31,1.28-.78,2.12-.54l.16.61c-.02-.18-.55-.37-.79-.18.35-.27,1.3.83,1.69.03l-.59-.42c.6-.31,1.35-.96,2.1-.77-.34-.61-.17.07-.71-.64.46.88-1.92-.04-1.18.89-.55-.82-.95-.35-1.66-1.05.02.2.25.39-.38.29-.03.06-.1.13-.14.18-.02,0-.03,0-.04-.02.01,0,.02.02.03.02-.03.03-.03.04.01,0,.15.09.27.19.32.31-.31.46-1.32.45-1.66.69-.37-.1.16-.23-.05-.45l-.51.36c-.05-.45-.99-.75-.11-1.01l-.79-.02c-.47-.25-1.11-.35-1.51-.16-.37-.1-.95.5-.62.15l-1.24.28v-.11c-1.24-.06-2.54.74-3.94-.07-.41.11-.84.25-1.53.12l-.13-.39c-.53.14-1.59-.39-1.82.02-.57-1.05-2.58-.23-3.51-.41l-.04.51c-.64-.03-1.26.12-2.06.32l.05.45c-.69.37-1.77-.32-2.86-.27.07-.17.35-.13.55-.02-1.3-1.01-2.74.74-3.92,0-.29.16-.51.11-.71,0,.03,0,.05,0,.07-.02-.03,0-.07,0-.12,0-.13-.08-.26-.17-.41-.24.12.11.24.2.34.24-.23,0-.57.07-.91.18l-.14-.48s-.05,0-.08.01c-.33-.18-.27.23-.09.59-.17.08-.32.17-.45.29-.27-.78-.88.26-1.25-.57-.23.4-1.69.3-1.87,1.15-.01-.11-.11-.16.07-.17-.38-.1-.75-.19-1.09.05l-.16-.61-.82.82c-.5-.37-.7-.59-.21-1.06-1.19.72-.97.27-1.98.99l.05-.4c-.36.02-.94.55-1.16.22-.81-.75-4.02-.1-6.1-.8.4,1.17-.97-.52-1.05.38-.12-.28-.41-.43-.07-.67-1.06.27-1.6-.44-2.33.32-.12-.28.23-.4.12-.57-.09.06-.34.24-.45.08-.11-.16.16-.23.32-.35-1.09.05-1.2.9-1.28,1.69-.55-.38-.83-.32-1.22.2-.19-.26-.51-.53.16-.63-.38-.04-2.32-.38-2.36.26-.12-.16-.53-.05-.63.03-.85-.04-.93-.1-1.76-.04l.23.1c-.33.77-.7.17-1.37.26l.02-.08c-1.55-.56-.67.27-2.19-.37l.08.48c-.14,1.03-1.35-.61-2.24-.21l.32.27c-.48.35-1.35-1.4-1.84-1.53-.11-.09.17-.14.32-.21-1.27-.61-.16.63-1.11.77-.17-.34.23-.86-.41-.92-.32-.27-1.85,1.1-2.72.45.19.26.38.52-.06.72-.67.09-1.82-.99-2.43-.16-.09-.07-.12-.14-.12-.2-.52.21-1.68.35-1.99.8-.48-1.66-3.21.81-3.19-.72l-1.59.08.04-.16c-1.01-.1-1.37.27-1.73.63-.23-.1-.06-.25-.04-.33-1.48-.31-1.63-.24-2.87.52l-.13-.5c-.34.29-2.14-.78-3.6-.2.01-.06.04-.15.16-.22-1.63.58-3.91-1.38-4.51.43l-1.08.44c1.4.14-.21.78.37,1.08-.55.11-1.42-.54-.74-.64l.11.09c.25-.94-1.73-.33-1.7-.97-2.75.05-5.42-.47-8-.51l.3.73-.9-.04c-.24-.17-.32-.57.32-.54-.34-.41-1.07.35-1.09.51-1.25-.3.49-.85.11-.87l-.52.05.12.09c-.42.3-.46.62-1.23.58-.49-.15-.25-.45-.44-.48,0-.05-.06-.08-.29-.02l-1.13-.06.45.58c-.5.28-1.06-.03-.54.62-.77-1.01-4.22-.36-4.69-.68-.7.42-1.39.41-2.25.36.21.12.34.77-.4.69.27-1.34-1.36-.58-1.95-1.55.53.64-2.1.16-1.27,1.07-.62-.11-.04-.5-.51-.82-1.47.52-3.24-.34-5.06-.16-.03.18.28.44-.11.71l-.96-.88c-.36.09-.33,1.02-.99.4.09.15.23.37,0,.43-3.56-.86-7.27.7-10.89-.91.49.34.16.37-.21.39.24.08,0,.43.04.67l-1.51-.66c-.28.66-1.62.04-1.78.68l.48-.11c-.64.75.89,1.66.8,2.62.71-.85,1.88,1.26,3.05.04.26.2-.22.31-.08.53.3-.41.66-.5,1.32-.31l-.08.1c1.87-.1,2.67.3,4.76.57l-.16-.47c.45.06.55.21.76.33.52-.72-1.27-.04-.79-.83.6.96,3.18.01,3.58,1.11.69,0-.2-.55.49-.54l.18.3.18-.38c.45.06.68.43.7.68-.11-.03-.31.07-.43.09.59.35,1.66-.12,1.86,0l-.67-.18c1.89-.28,4.2.11,6.03-.49l-.14-.22c1.4-.41,1.12.25,2.65.05l-.06.05c.31-.22.72-.33,1.14-.31-.39.26.73.51.22.8,1.51-.44.75-.35,1.75-1.18l.23.37c.34-.34.37-.51,1.13-.61-.63.32.49.57-.21.99,1.61.81,2.38-.82,3.12.37.74-1.03-1.39-.57-.98-.79-.35-.34.61-.77,1.11-.66.51.02.87,1.31,2.16,1.29-.13,0-.14.07-.27.07.48.26.95-.35,1.54.07.33-.62.77.04.86-.76l-1.18.18c.67-.21,1.3-1.13,2.41-.68-.09.16-.42.37-.64.49.32.23.62-.15.96.08-.1.79-1.44.17-2.16.78.35.33,1.36-.57,1,.28.52-1.09,1.27.14,2.15-.7l-.06.47c.14-.07.42-.3.68-.29l-.46.62c.71-.52,1.36.46,2.04.17-1.42.01-.32-.57-.92-.92,1.75-.64,1.01,1.24,2.97,1.01-.27.07-1-.29-.58-.5.37.1.87.28,1.1.53,1.3-.1-.2-.49.35-.78.44.58.64-.24,1.21-.42v.48c1.49.31.4-1.01,1.73-.63l-.56.67.7-.17-.14.55c.76-.41.99-.3,1.73-.15-.17-.34.1-.88.75-.89.45.29-.25.46.68.39-.21.3-.44.68-.84.24-.04.16-.21.3-.25.46.48.33,1.21.08,1.55.07-.13-.02-.28-.04-.36-.11l1.35-.67c.21.18.04.33-.12.47.27-.05.46-.27.86-.32-.1.39-.08.8-.65.98l1.28-.44c.09.17.66.47.49.61.71.23,1.75-.76,2.69-.46.05-.08.15-.15.35-.21.89.09,1.67.57,2.72.03l.6.7c.82-.16-.81-.89.56-1.15.97-.22.36.6.7.8.48-.35,1.32-1.08,2.21-.5-.3.13-.53.03-.8.08ZM144.56,52.2c-.2.1-.59.41-.73.13.22-.55.4-.29.73-.13ZM160,51.03c-.15.16-.37.08-.63-.1.19-.04.4-.02.63.1ZM203.01,47.68s-.01.01-.02.02c-.44-.19-.28-.11.02-.02ZM203.92,47.88c.09-.07.09-.13.05-.2-.06.12-.27.13-.5.1.06.13.18.21.45.11ZM106.02,48.07l.18.13c-.4.14-.29.01-.18-.13Z"/>
      <path class="cls-1" d="M158.25,51.69c-.06-.08-.07-.17-.08-.26-.08.08-.08.17.08.26Z"/>
      <path class="cls-1" d="M128.08,52.76s-.02,0-.03,0c-.02.03-.03.06-.03.09l.06-.08Z"/>
      <path class="cls-1" d="M189.8,51.98c-.19-.07-.29-.16-.36-.25-.01.12.08.22.36.25Z"/>
      <path class="cls-1" d="M208.76,47.06l-.58.13c.28-.02.38.08.53.16-.01-.11-.12-.28.06-.28Z"/>
      <path class="cls-1" d="M213.82,50.05c.09-.06.18,0,.27-.07l-.02-.22c-.36.01-.62.2-.24.29Z"/>
      <path class="cls-1" d="M209.3,48.67c.05.41.41.27.82.19-.02,0-.05,0-.07,0,.12-.57-.32-.38-.75-.19Z"/>
      <path class="cls-1" d="M210.21,48.85c.13-.02.25-.03.38-.01.05-.23-.15-.05-.38.01Z"/>
      <path class="cls-1" d="M205.08,47.62c.19.1.12-.52.23-.35.22-.52-1.29.62-.23.35Z"/>
      <polygon class="cls-1" points="209.63 50 209.48 49.5 209.25 49.91 209.63 50"/>
      <path class="cls-1" d="M206.4,49.64l.65.14c0-.08.07-.13.18-.17-.4-.02-.84-.12-.83.03Z"/>
      <path class="cls-1" d="M207.23,49.6c.21,0,.41,0,.53-.08-.11,0-.36.02-.53.08Z"/>
      <polygon class="cls-1" points="208.73 50.16 208.54 50.05 208.08 50.01 208.73 50.16"/>
      <path class="cls-1" d="M199.37,49.54l-.71.14c-.07.17.12.28.39.21.17-.12.44-.19.33-.35Z"/>
      <path class="cls-1" d="M201.53,50.91c-.19-.1-.21-.22-.31-.38l-.02.62.34-.24Z"/>
      <path class="cls-1" d="M199.45,51.06c-.07.17-1.04.49-.13.46.07-.17.79-.31.13-.46Z"/>
      <polygon class="cls-1" points="188.7 50.27 188.88 50.26 188.85 49.25 188.7 50.27"/>
      <path class="cls-1" d="M179.23,52.71c.85.24.2-.63.96-.32.2-.24-.62-.25-.42-.46-.51.25-.78.11-.54.78Z"/>
      <path class="cls-1" d="M179.77,51.93c.08-.04.17-.09.26-.15-.15.06-.22.11-.26.15Z"/>
      <polygon class="cls-1" points="72.83 47.56 72.29 47.35 72.64 47.69 72.83 47.56"/>
      <path class="cls-1" d="M71.79,48.31l-.13-.65-.33.59c.12-.03.36-.08.45.06Z"/>
      <path class="cls-1" d="M146.07,53.5l.04-.16c-.08-.17-.21-.18-.47-.21l.42.36Z"/>
      <polygon class="cls-1" points="138.7 53.02 138.82 53.03 138.59 52.44 138.7 53.02"/>
      <path class="cls-1" d="M132.51,53.77c.25.02.55-.11.8-.08-.55.11-.87-.65-.8.08Z"/>
    </g>
  </g>
  <g id="_생활에_꼭_필요한_정보반" data-name="생활에 꼭 필요한 정보반">
    <text class="cls-3" transform="translate(80.61 68.25)"><tspan x="0" y="0">생활에 꼭 필요한 정보만</tspan></text>
  </g>
</svg>